<svg xmlns="http://www.w3.org/2000/svg" viewBox="0 0 800 600">
  <defs>
    <radialGradient id="glow" cx="65%" cy="60%" r="75%">
      <stop offset="0%" stop-color="#1BE2EB" stop-opacity="0.3"/>
      <stop offset="60%" stop-color="#1BE2EB" stop-opacity="0"/>
    </radialGradient>
    <pattern id="grid" width="80" height="80" patternUnits="userSpaceOnUse">
      <path d="M80 0H0V80" fill="none" stroke="#ffffff" stroke-opacity="0.07"/>
    </pattern>
  </defs>
  <rect width="800" height="600" fill="#0B0B10"/>
  <rect width="800" height="600" fill="url(#grid)"/>
  <rect width="800" height="600" fill="url(#glow)"/>
  <g fill="#ffffff" opacity="0.5">
    <rect x="96" y="120" width="10" height="26"/>
    <rect x="96" y="168" width="10" height="26"/>
    <rect x="96" y="216" width="10" height="26"/>
    <rect x="96" y="264" width="10" height="26"/>
    <rect x="96" y="312" width="10" height="26"/>
  </g>
  <rect x="122" y="112" width="6" height="360" fill="#1BE2EB" opacity="0.7"/>
  <g>
    <rect x="200" y="140" width="120" height="120" rx="20" fill="#891FFB"/>
    <rect x="344" y="140" width="120" height="120" rx="20" fill="#507AF4"/>
    <rect x="488" y="140" width="120" height="120" rx="20" fill="#1BE2EB"/>
  </g>
  <g fill="#ffffff" opacity="0.4">
    <rect x="200" y="300" width="408" height="14" rx="7"/>
    <rect x="200" y="330" width="300" height="14" rx="7"/>
    <rect x="200" y="360" width="350" height="14" rx="7"/>
  </g>
  <rect x="200" y="410" width="180" height="16" rx="8" fill="#1BE2EB"/>
</svg>
